<svg width="224" height="224" viewBox="0 0 224 224" fill="none" xmlns="http://www.w3.org/2000/svg">
<path d="M114 5C114 2.23858 116.24 -0.011859 118.998 0.113616C131.737 0.693022 144.29 3.48363 156.095 8.37305C169.441 13.9011 181.568 22.0033 191.782 32.2178C201.997 42.4322 210.099 54.5595 215.627 67.9053C220.516 79.7095 223.307 92.2634 223.886 105.002C224.012 107.76 221.761 110 219 110H209C206.239 110 204.014 107.76 203.861 105.002C203.299 94.8918 201.034 84.9361 197.149 75.5586C192.626 64.6393 185.997 54.7176 177.64 46.3604C169.282 38.0031 159.361 31.3735 148.441 26.8506C139.064 22.9663 129.108 20.7011 118.998 20.1388C116.24 19.9855 114 17.7614 114 15V5Z" fill="#A8D0A6"/>
<path d="M219 114C221.761 114 224.012 116.24 223.886 118.998C223.307 131.737 220.516 144.29 215.627 156.095C210.099 169.441 201.997 181.568 191.782 191.782C181.568 201.997 169.441 210.099 156.095 215.627C144.29 220.516 131.737 223.307 118.998 223.886C116.24 224.012 114 221.761 114 219L114 209C114 206.239 116.24 204.014 118.998 203.861C129.108 203.299 139.064 201.034 148.441 197.149C159.361 192.626 169.282 185.997 177.64 177.64C185.997 169.282 192.626 159.361 197.149 148.441C201.034 139.064 203.299 129.108 203.861 118.998C204.014 116.24 206.239 114 209 114L219 114Z" fill="#2BAF2E"/>
<path d="M110 219C110 221.761 107.76 224.012 105.002 223.886C92.2633 223.307 79.7095 220.516 67.9053 215.627C54.5595 210.099 42.4322 201.997 32.2178 191.782C22.0033 181.568 13.9011 169.441 8.37305 156.095C3.48363 144.29 0.693032 131.737 0.113626 118.998C-0.0118467 116.24 2.23859 114 5.00001 114L15 114C17.7614 114 19.9855 116.24 20.1388 118.998C20.7011 129.108 22.9663 139.064 26.8506 148.441C31.3735 159.361 38.0031 169.282 46.3604 177.64C54.7176 185.997 64.6393 192.626 75.5586 197.149C84.9361 201.034 94.8918 203.299 105.002 203.861C107.76 204.014 110 206.239 110 209L110 219Z" fill="#F5516C"/>
<path d="M5 110C2.23858 110 -0.0118587 107.76 0.113616 105.002C0.693024 92.2633 3.48363 79.7095 8.37305 67.9053C13.9011 54.5595 22.0033 42.4322 32.2178 32.2178C42.4322 22.0033 54.5595 13.9011 67.9053 8.37306C79.7095 3.48364 92.2634 0.693036 105.002 0.113631C107.76 -0.0118419 110 2.23859 110 5.00001L110 15C110 17.7614 107.76 19.9855 105.002 20.1389C94.8918 20.7011 84.9361 22.9663 75.5586 26.8506C64.6393 31.3735 54.7176 38.0031 46.3604 46.3604C38.0031 54.7176 31.3735 64.6393 26.8506 75.5586C22.9663 84.9361 20.7011 94.8918 20.1388 105.002C19.9855 107.76 17.7614 110 15 110L5 110Z" fill="#FFB81F"/>
</svg>
