<svg width="13" height="14" viewBox="0 0 13 14" fill="none" xmlns="http://www.w3.org/2000/svg">
<path d="M11.6094 3.36158L12.4347 2.73158C12.5108 2.67301 12.6234 2.72587 12.6249 2.82015L12.6132 5.40444C12.6132 5.4773 12.5415 5.53158 12.4683 5.51444L9.8989 4.90015C9.87749 4.89506 9.85799 4.88417 9.84264 4.86873C9.82729 4.8533 9.81672 4.83395 9.81213 4.8129C9.80755 4.79186 9.80914 4.76998 9.81672 4.74979C9.82431 4.72959 9.83758 4.71189 9.855 4.69873L10.7359 4.0273L11.6094 3.36158Z" fill="#BCBCCC"/>
<path d="M11.3311 4.03196C10.3849 2.65384 8.798 1.75 7 1.75C4.10051 1.75 1.75 4.10051 1.75 7C1.75 9.89949 4.10051 12.25 7 12.25C9.29585 12.25 11.2475 10.7763 11.9606 8.72329" stroke="#BCBCCC" stroke-width="2"/>
</svg>
