<svg width="209" height="209" viewBox="0 0 209 209" fill="none" xmlns="http://www.w3.org/2000/svg">
<path d="M196.47 104.5C196.47 156.139 155.056 198 103.97 198C52.8834 198 11.4697 156.139 11.4697 104.5C11.4697 52.8614 52.8834 11 103.97 11C155.056 11 196.47 52.8614 196.47 104.5ZM15.6082 104.5C15.6082 153.828 55.169 193.817 103.97 193.817C152.77 193.817 192.331 153.828 192.331 104.5C192.331 55.1717 152.77 15.1832 103.97 15.1832C55.169 15.1832 15.6082 55.1717 15.6082 104.5Z" fill="#F0F1ED"/>
<path d="M103.969 205.817C90.7339 205.817 77.628 203.196 65.4 198.105C53.172 193.013 42.0613 185.55 32.7024 176.142C23.3435 166.734 15.9196 155.565 10.8546 143.272C5.78954 130.98 3.18262 117.805 3.18262 104.5L23.798 104.5C23.798 115.084 25.8717 125.564 29.9007 135.342C33.9297 145.12 39.835 154.004 47.2796 161.488C54.7243 168.972 63.5623 174.908 73.2891 178.958C83.016 183.009 93.4412 185.093 103.969 185.093L103.969 205.817Z" fill="#F44D6F"/>
<path d="M3.18262 104.5C3.18262 77.6289 13.8012 51.8584 32.7024 32.8578C51.6036 13.8571 77.2391 3.18262 103.969 3.18262L103.969 23.9065C82.7066 23.9065 62.3147 32.3975 47.2797 47.5117C32.2446 62.6259 23.798 83.1252 23.798 104.5L3.18262 104.5Z" fill="url(#paint0_linear_7706_5485)"/>
<path d="M103.969 3.18262C130.7 3.18262 156.335 13.8571 175.236 32.8577C194.138 51.8584 204.756 77.6288 204.756 104.5L184.141 104.5C184.141 83.1252 175.694 62.6259 160.659 47.5117C145.624 32.3975 125.232 23.9065 103.969 23.9065L103.969 3.18262Z" fill="url(#paint1_linear_7706_5485)"/>
<path d="M204.5 104.5C204.5 121.966 199.902 139.124 191.17 154.25L173.592 144.102C180.544 132.061 184.204 118.403 184.204 104.5H204.5Z" fill="url(#paint2_linear_7706_5485)"/>
<path d="M198.863 146.364L202.948 151.96L205.751 145.624L198.863 146.364Z" fill="#053969"/>
<rect x="198.151" y="145.502" width="1" height="25" transform="rotate(113.871 198.151 145.502)" fill="#053969"/>
<path d="M174.173 135.438L167.284 136.178L170.088 129.842L174.173 135.438Z" fill="#053969"/>
<defs>
<linearGradient id="paint0_linear_7706_5485" x1="15.5" y1="60.5" x2="15.5" y2="104" gradientUnits="userSpaceOnUse">
<stop stop-color="#FFB81F"/>
<stop offset="1" stop-color="#F44D6F"/>
</linearGradient>
<linearGradient id="paint1_linear_7706_5485" x1="151.5" y1="21" x2="103.5" y2="10.5" gradientUnits="userSpaceOnUse">
<stop stop-color="#A8D0A6"/>
<stop offset="1" stop-color="#FFB81F"/>
</linearGradient>
<linearGradient id="paint2_linear_7706_5485" x1="196" y1="105" x2="182" y2="149" gradientUnits="userSpaceOnUse">
<stop stop-color="#A8D0A6"/>
<stop offset="1" stop-color="#319233"/>
</linearGradient>
</defs>
</svg>
