<svg width="30" height="30" viewBox="0 0 30 30" fill="none" xmlns="http://www.w3.org/2000/svg">
<ellipse cx="9.32396" cy="14.9997" rx="9.32396" ry="9.32396" fill="#EC0014"/>
<ellipse cx="20.6758" cy="14.9997" rx="9.32396" ry="9.32396" fill="#F79F14"/>
<path fill-rule="evenodd" clip-rule="evenodd" d="M15.0003 7.60156C12.7818 9.30601 11.3518 11.9859 11.3518 14.9998C11.3518 18.0137 12.7818 20.6936 15.0003 22.3981C17.2188 20.6936 18.6488 18.0137 18.6488 14.9998C18.6488 11.9859 17.2188 9.30601 15.0003 7.60156Z" fill="#BB0010"/>
<path fill-rule="evenodd" clip-rule="evenodd" d="M15.0003 22.3981C17.2188 20.6936 18.6488 18.0137 18.6488 14.9998C18.6488 11.9859 17.2188 9.30601 15.0003 7.60156C12.7818 9.30601 11.3518 11.9859 11.3518 14.9998C11.3518 18.0137 12.7818 20.6936 15.0003 22.3981Z" fill="#BB0010"/>
</svg>
