<svg width="43" height="30" viewBox="0 0 43 30" fill="none" xmlns="http://www.w3.org/2000/svg">
<path d="M39.3874 8.83564H36.789C36.0034 8.83564 35.3992 9.07735 35.0366 9.86292L30.0815 21.163H33.5863C33.5863 21.163 34.1906 19.6523 34.3114 19.2897C34.674 19.2897 38.1184 19.2897 38.6019 19.2897C38.7227 19.7127 39.0249 21.1026 39.0249 21.1026H42.1671L39.3874 8.83564ZM35.2783 16.7518C35.5804 16.0266 36.6077 13.3073 36.6077 13.3073C36.6077 13.3678 36.9099 12.5822 37.0307 12.1592L37.2724 13.2469C37.2724 13.2469 37.9371 16.2079 38.058 16.8122H35.2783V16.7518Z" fill="#002FBF"/>
<path d="M30.3236 17.1148C30.3236 19.6527 28.0273 21.3447 24.462 21.3447C22.9513 21.3447 21.5011 21.0426 20.7155 20.68L21.1989 17.9003L21.6219 18.0816C22.7096 18.565 23.4348 18.7463 24.7642 18.7463C25.731 18.7463 26.7583 18.3838 26.7583 17.5378C26.7583 16.9939 26.3353 16.6313 25.0059 16.027C23.7369 15.4228 22.0449 14.4559 22.0449 12.7035C22.0449 10.2864 24.4016 8.65479 27.7252 8.65479C28.9942 8.65479 30.0819 8.8965 30.7466 9.19864L30.2632 11.8575L30.0215 11.6158C29.4172 11.3741 28.6316 11.1323 27.4835 11.1323C26.2145 11.1928 25.6102 11.7366 25.6102 12.2201C25.6102 12.7639 26.3353 13.1869 27.4835 13.7308C29.4172 14.6372 30.3236 15.6645 30.3236 17.1148Z" fill="#002FBF"/>
<path d="M16.0024 8.83544L10.7451 21.1024H7.17987L4.15845 10.8296C6.33387 12.2194 8.14672 14.3949 8.81143 15.9056L9.174 17.1746L12.4371 8.77501H16.0024V8.83544Z" fill="#002FBF"/>
<path d="M17.3914 8.77501H20.715L18.6 21.1024H15.2765L17.3914 8.77501Z" fill="#002FBF"/>
<path d="M0.833252 8.95705L0.89368 8.71533H6.09052C6.81566 8.71533 7.35952 8.95705 7.5408 9.74261L8.68894 15.1812C7.5408 12.2806 4.88195 9.9239 0.833252 8.95705Z" fill="#FEE000"/>
</svg>
