<svg width="30" height="30" viewBox="0 0 30 30" fill="none" xmlns="http://www.w3.org/2000/svg">
<path d="M19.3476 5C13.4155 5 8.69678 9.49367 8.69678 15C8.69678 20.5696 13.4829 25 19.3476 25C25.2124 25 29.9985 20.5063 29.9985 15C29.9985 9.49367 25.2124 5 19.3476 5ZM19.3476 18.7342C17.1905 18.7342 15.3704 17.0253 15.3704 15C15.3704 12.9747 17.1905 11.2658 19.3476 11.2658C21.5048 11.2658 23.3248 12.9747 23.3248 15C23.2576 17.0253 21.5048 18.7342 19.3476 18.7342Z" fill="#8B3FFD"/>
<path d="M8.62857 7.91162V22.4686H4.85357L0 7.91162H8.62857Z" fill="#8B3FFD"/>
</svg>
