<svg width="31" height="30" viewBox="0 0 31 30" fill="none" xmlns="http://www.w3.org/2000/svg">
<g clip-path="url(#clip0_3152_1153)">
<path d="M0.5 10.909H3.3125C3.56818 10.909 4.33523 10.8238 4.67614 12.017C4.93182 12.784 5.27273 13.9772 5.78409 15.767H5.95455C6.46591 13.892 6.89205 12.6136 7.0625 12.017C7.40341 10.8238 8.25568 10.909 8.59659 10.909H11.2386V19.0909H8.51136V14.2329H8.34091L6.89205 19.0909H4.84659L3.39773 14.2329H3.14205V19.0909H0.5M12.3466 10.909H15.0739V15.767H15.3295L17.1193 11.7613C17.4602 10.9943 18.2273 10.909 18.2273 10.909H20.7841V19.0909H18.0568V14.2329H17.8864L16.0966 18.2386C15.7557 19.0056 14.9034 19.0909 14.9034 19.0909H12.3466M24.4489 16.6193V19.0909H21.892V14.8295H30.2443C29.9034 15.8522 28.7102 16.6193 27.3466 16.6193" fill="#0F754E"/>
<path d="M30.4149 14.3183C30.7558 12.7842 29.733 10.9092 27.5171 10.9092H21.7217C21.8921 12.699 23.4262 14.3183 25.0455 14.3183" fill="url(#paint0_linear_3152_1153)"/>
</g>
<defs>
<linearGradient id="paint0_linear_3152_1153" x1="29.3921" y1="9.80123" x2="22.574" y2="9.80123" gradientUnits="userSpaceOnUse">
<stop stop-color="#1F5CD7"/>
<stop offset="1" stop-color="#02AEFF"/>
</linearGradient>
<clipPath id="clip0_3152_1153">
<rect width="30" height="30" fill="white" transform="translate(0.5)"/>
</clipPath>
</defs>
</svg>
