<svg width="30" height="30" viewBox="0 0 30 30" fill="none" xmlns="http://www.w3.org/2000/svg">
<path d="M23.8539 18.8879C24.3754 19.082 24.576 19.8378 24.6159 20.1675C24.6963 20.769 24.5162 21.0017 24.3156 21.0017C24.115 21.0017 23.834 20.769 23.5337 20.3037C23.2327 19.8378 23.1125 19.3146 23.2732 19.0428C23.3729 18.868 23.5929 18.7909 23.8539 18.8879ZM20.8072 21.0794C21.1281 21.0794 21.4888 21.2151 21.8097 21.4863C22.4309 21.9908 22.6116 22.5724 22.2907 22.9992C22.11 23.2125 21.8097 23.3481 21.4689 23.3481C21.1281 23.3481 20.7673 23.2318 20.5268 23.0184C19.9655 22.5531 19.8054 21.7768 20.1655 21.3507C20.3063 21.1759 20.5268 21.0794 20.8072 21.0794ZM13.7917 26.6837C6.17376 26.6837 0 20.7106 0 13.3415C0 5.9725 6.17438 0 13.7911 0C21.4085 0 27.5828 5.9731 27.5828 13.3415C27.5828 15.8429 26.8613 18.1899 25.6389 20.1874C25.5984 20.2453 25.4981 20.226 25.4782 20.1482C24.9972 16.8711 22.9324 15.0672 19.9256 14.5247C19.6646 14.4855 19.6247 14.3306 19.9655 14.292C20.8876 14.2143 22.1904 14.2336 22.872 14.3499C22.9119 14.0202 22.9324 13.6712 22.9324 13.3222C22.9324 8.45456 18.8428 4.49821 13.811 4.49821C8.77995 4.49821 4.69028 8.45456 4.69028 13.3222C4.69028 18.1899 8.77995 22.1463 13.8117 22.1463H14.2322C14.0893 21.359 14.0288 20.5597 14.0515 19.7607C14.0721 19.2176 14.1923 19.1398 14.4328 19.5666C15.6958 21.6804 17.5001 23.5808 21.0278 24.3372C23.9143 24.958 26.8009 25.6753 29.908 29.4954C30.1884 29.8251 29.7679 30.1741 29.447 29.9029C26.28 27.1876 23.3935 26.2955 20.7673 26.2955C17.8203 26.3154 15.8166 26.6837 13.7917 26.6837Z" fill="#FF8C00"/>
</svg>
