<svg width="196" height="255" viewBox="0 0 196 255" fill="none" xmlns="http://www.w3.org/2000/svg">
<g clip-path="url(#clip0_3354_4442)">
<path d="M50.7288 15.396C55.0185 28.3548 59.1018 40.6871 63.1765 53.0106C63.3571 53.5589 63.5634 54.0985 63.7009 54.6642C63.9502 55.6999 65.0764 57.0663 63.4774 57.6494C61.655 58.3108 61.5432 56.3787 61.1736 55.317C59.3339 49.9994 57.6146 44.6296 55.8351 39.2859C53.2476 31.5141 50.6515 23.7509 48.0467 15.9269C42.3329 19.0019 40.4216 23.4318 42.3129 29.2164C52.4309 59.947 62.5834 90.6601 72.6327 121.408C73.1915 123.123 75.3664 125.995 73.1743 126.682C70.5781 127.492 70.7672 123.81 70.1655 122C59.3683 89.5113 48.7344 56.9618 37.8685 24.4994C36.6564 20.8702 37.602 19.3385 40.4474 17.1714C45.3302 13.4465 50.4709 12.1758 56.4369 12.5327C59.2393 12.698 60.3397 13.6641 61.1908 16.275C72.306 50.6347 83.533 84.9509 94.7343 119.276C94.9148 119.824 95.2071 120.346 95.3016 120.912C95.465 121.843 96.1355 123.114 94.846 123.558C93.2901 124.089 93.0665 122.644 92.7055 121.539C90.1867 113.854 87.6336 106.178 85.132 98.4929C76.5011 71.9833 67.7585 45.5086 59.3597 18.9294C57.7779 13.9252 54.4683 15.9443 50.7374 15.3786L50.7288 15.396Z" fill="#4C33E4"/>
<path d="M148.694 4.18641C149.038 9.84341 149.331 15.4569 149.717 21.0617C150.861 37.5366 152.047 54.0115 153.165 70.4951C153.251 71.7745 154.274 73.8893 152.159 74.0547C150.182 74.2026 150.646 71.992 150.551 70.6779C149.064 49.8688 147.646 29.0511 146.073 8.25075C145.978 7.01491 147.388 3.82089 144.319 4.7173C142.092 5.37003 137.914 4.49973 138.241 9.12106C138.611 14.3255 139.006 19.5212 139.453 24.717C140.992 42.3233 142.574 59.9209 144.113 77.5272C144.216 78.7456 144.86 80.6342 143.158 80.8344C140.966 81.0955 141.534 78.8065 141.422 77.5968C140.064 62.8799 138.817 48.163 137.545 33.4374C136.823 25.0651 136.221 16.684 135.335 8.32908C135.078 5.86611 135.705 4.7086 137.992 3.78607C143.691 1.47976 149.296 0.122081 155.434 2.29785C157.463 3.0202 158.623 3.60331 158.761 5.92703C159.973 26.6142 161.271 47.2927 162.509 67.9712C162.569 69.0243 163.119 70.7127 161.555 70.8693C159.689 71.0608 159.982 69.2332 159.904 68.0147C158.718 49.2161 157.506 30.4175 156.397 11.6188C155.993 4.73471 156.113 4.72601 148.686 4.18641H148.694Z" fill="#4C33E4"/>
<path d="M116.217 117.318C114.463 116.117 114.111 114.498 113.604 113.036C102.901 82.0441 92.2327 51.0438 81.5644 20.0347C80.2406 16.1792 75.4093 14.0296 71.7386 15.7702C69.5465 16.8059 71.2572 18.4072 71.5925 19.4516C77.0255 36.5183 82.6218 53.5328 88.0806 70.5909C88.6394 72.3489 90.6939 75.2644 88.6479 75.9171C86.2495 76.6743 86.1722 73.106 85.5532 71.2349C79.6474 53.263 73.819 35.2651 67.9906 17.2671C66.5979 12.9591 66.959 12.4717 71.326 12.376C81.7879 12.1323 81.6848 12.1671 85.0632 22.0016C95.2501 51.6443 105.531 81.2521 115.71 110.895C116.363 112.801 117.824 114.768 116.208 117.309L116.217 117.318Z" fill="#4C33E4"/>
<path d="M54.0041 120.99C54.1502 121.8 53.9869 122.365 53.3765 122.574C52.3364 122.922 51.8206 122.209 51.3822 121.408C48.743 116.604 46.0781 111.809 43.4734 106.987C36.4758 94.0369 29.5041 81.0694 22.5151 68.1105C20.9334 65.1775 17.2541 64.3594 14.6579 66.3176C12.8355 67.6927 14.3313 68.9721 14.89 70.0774C18.9906 78.1973 23.2115 86.2651 27.3378 94.3764C27.8793 95.4381 29.2892 96.9351 27.8106 97.7967C26.2374 98.7105 25.7818 96.6304 25.2488 95.6296C20.899 87.4748 16.5492 79.32 12.4143 71.0608C11.0646 68.3716 10.4285 67.9016 7.62602 69.9294C3.57707 72.8711 3.46531 75.0468 5.88952 79.3635C12.8097 91.6958 19.0765 104.402 25.5325 116.996C26.1171 118.127 27.7762 119.781 25.9537 120.712C24.1485 121.634 23.8218 119.319 23.22 118.171C15.9474 104.376 8.77795 90.5296 1.45373 76.7613C0.164261 74.3419 0.318997 73.0538 2.39935 70.9651C7.27356 66.0653 12.8011 63.1236 19.6095 62.2446C21.5179 61.9922 22.5151 62.2707 23.4006 63.9243C33.4241 82.6272 43.4906 101.313 53.5399 119.998C53.7462 120.372 53.9095 120.773 54.0213 120.999L54.0041 120.99Z" fill="#4C33E4"/>
<path d="M119.123 0.887952C121.555 0.887952 123.275 0.914061 124.985 0.879249C126.318 0.844436 127.169 1.44495 127.513 2.7243C128.596 6.76252 129.688 10.8008 130.711 14.8564C130.908 15.6484 131.106 16.7972 130.1 17.1105C128.768 17.5369 128.484 16.2924 128.2 15.3438C127.59 13.2637 126.687 11.2098 126.507 9.08624C126.077 4.1516 123.404 3.08113 118.994 3.42925C116.225 3.64682 116.002 4.4214 116.776 6.79734C118.83 13.1071 120.696 19.4777 122.63 25.831C122.802 26.3792 122.965 26.9362 123.094 27.5019C123.455 29.0598 124.968 31.2878 122.828 31.9492C120.842 32.5584 120.988 29.8083 120.558 28.4854C118.254 21.3489 116.079 14.1601 113.982 6.95399C113.371 4.86525 112.735 4.56065 110.827 5.75297C105.153 9.28642 105.093 9.20809 107.191 15.5178C115.383 40.1736 123.575 64.8381 131.768 89.4939C131.991 90.1815 132.215 90.869 132.447 91.5479C132.825 92.6531 133.393 94.0021 131.794 94.4025C130.564 94.7158 130.238 93.332 129.937 92.4269C127.478 85.1859 125.063 77.9275 122.647 70.6692C116.071 50.948 109.537 31.2182 102.884 11.5231C102.153 9.34734 102.385 8.05928 104.38 6.85826C109.202 3.94273 113.311 -0.756929 119.123 0.896654V0.887952Z" fill="#4C33E4"/>
<path d="M34.4643 39.0161C36.8541 39.1815 38.3757 39.1902 37.1808 41.54C36.2093 43.4547 37.4129 45.2214 37.9888 46.9359C45.8116 70.3298 53.686 93.7149 61.5432 117.1C61.7237 117.648 61.8957 118.197 62.0504 118.754C62.3943 120.042 63.7181 121.817 61.8527 122.452C59.9529 123.096 59.8583 120.808 59.4543 119.589C51.365 95.5164 43.3702 71.4176 35.2036 47.3798C34.705 45.9176 35.4271 42.6105 32.2206 43.4025C28.163 44.3946 27.0025 47.0229 28.4295 50.7478C31.8337 59.6424 35.2637 68.5195 38.6164 77.4315C39.0118 78.4845 40.413 79.9989 38.5046 80.7212C36.8025 81.3652 36.5532 79.555 36.1062 78.3888C32.3237 68.563 28.5929 58.7112 24.733 48.9202C23.8992 46.7966 24.1141 45.439 26.1257 44.2205C29.1344 42.3929 31.5758 39.5383 34.4815 39.0074L34.4643 39.0161Z" fill="#4C33E4"/>
<path d="M99.4881 17.4064C100.743 17.5456 101.998 17.067 102.557 18.0504C103.279 19.3124 101.818 19.5996 101.216 20.3045C99.8664 21.8798 101.268 23.368 101.723 24.7344C110.019 49.8253 118.426 74.8815 126.696 99.9811C127.203 101.522 129.378 104.028 127.1 104.829C124.839 105.629 125.028 102.374 124.495 100.808C116.397 76.7091 108.368 52.5929 100.331 28.4767C100.055 27.6586 99.8062 26.8231 99.5139 26.0137C97.6313 20.7571 97.6485 20.8006 92.8688 23.5682C91.4934 24.3688 89.6537 26.6142 88.4846 24.7866C87.2467 22.8632 90.1781 22.1844 91.3988 21.4881C94.0809 19.9651 96.316 17.3542 99.4795 17.4151L99.4881 17.4064Z" fill="#4C33E4"/>
<path d="M188.436 188.439C189.777 196.385 191.247 204.314 192.39 212.286C192.923 216.019 189.15 217.351 187.078 220.936C185.505 211.398 183.828 202.904 183.123 194.244C184.894 192.312 186.665 190.371 188.427 188.439H188.436Z" fill="#4C33E4"/>
<path d="M86.0862 125.525C86.1378 126.247 86.2323 127.178 85.4157 127.352C83.8425 127.692 83.6534 126.325 83.3095 125.237C81.2034 118.649 79.0801 112.061 76.9825 105.473C73.5783 94.7593 70.1827 84.0371 66.7785 73.3236C66.4432 72.2618 65.5578 70.9651 67.0793 70.3559C68.7041 69.7118 68.8588 71.3828 69.1769 72.375C74.7388 89.6593 80.275 106.961 85.8025 124.254C85.9314 124.663 85.9916 125.098 86.0776 125.525H86.0862Z" fill="#4C33E4"/>
<path d="M104.225 121.565C102.514 121.025 102.351 119.406 101.912 118.171C98.4565 108.249 95.0953 98.3014 91.7169 88.3451C91.3215 87.1789 90.3157 85.5514 91.8372 84.9335C93.4964 84.2634 93.7714 86.2825 94.1497 87.3704C97.6485 97.4311 101.078 107.509 104.483 117.605C104.913 118.884 105.574 120.294 104.216 121.565H104.225Z" fill="#4C33E4"/>
<path d="M136.763 70.2514C136.685 71.4786 136.969 72.5926 135.748 72.6796C134.751 72.7492 134.381 71.8441 134.123 70.9825C131.613 62.5579 129.094 54.1333 126.601 45.7088C126.352 44.8646 126.197 43.8985 127.315 43.5852C128.381 43.2806 128.837 44.1248 129.103 44.9777C130.255 48.6939 131.39 52.4101 132.516 56.135C133.977 60.9566 135.421 65.7868 136.763 70.2514Z" fill="#4C33E4"/>
<path d="M83.086 231.911C113.371 214.122 145.522 201.598 180.33 196.55C181.55 204.401 182.625 212.277 184.086 220.075C184.559 222.599 183.493 223.103 181.636 223.478C153.775 229.048 127.324 238.908 101.577 250.805C99.4537 251.789 98.1815 251.876 96.5653 249.874C91.8544 244.052 87.1264 238.247 83.086 231.92V231.911Z" fill="#4C33E4"/>
<path d="M188.436 188.439C187.302 179.988 186.133 171.546 185.058 163.096C184.895 161.816 183.855 159.754 185.858 159.44C188.007 159.101 187.413 161.459 187.603 162.678C190.139 179.101 192.58 195.541 195.082 211.972C195.382 213.948 194.97 215.453 193.672 217.098C189.795 222.024 185.703 225.566 178.98 226.906C152.159 232.276 126.688 241.963 101.956 253.634C98.6633 255.191 97.0386 254.669 94.8551 252.05C76.9056 230.457 62.9707 206.254 49.9642 181.45C41.4795 165.263 33.6824 148.727 26.5302 131.886C25.0859 128.492 25.4384 126.969 29.367 127.404C29.6507 127.439 29.943 127.404 30.2266 127.404C43.0182 127.239 55.337 128.614 68.0082 131.947C97.8123 139.797 128.098 123.07 139.978 94.3848C140.709 92.6268 141.895 91.5476 143.193 90.4597C149.022 85.5512 154.962 80.7906 160.721 75.795C163.042 73.7846 165.08 72.9143 168.364 73.6976C177.046 75.7689 177.321 75.4991 178.379 84.3241C180.373 100.982 182.084 117.683 183.906 134.358C183.966 134.932 184.001 135.516 183.992 136.09C183.975 137.169 184.62 138.831 183.055 138.953C181.319 139.084 181.516 137.274 181.362 136.038C181.112 134.027 180.872 132.017 180.657 130.006C178.877 113.61 177.098 97.2133 175.327 80.8167C175.06 78.3102 168.948 75.1945 166.782 76.5C165.768 77.1092 166.318 78.023 166.412 78.815C169.034 101.661 172.464 124.393 175.791 147.134C177.88 161.433 180.063 175.724 182.23 190.014C182.445 191.433 182.832 192.825 183.132 194.226C183.837 202.886 185.514 211.38 187.087 220.919C189.159 217.333 192.932 216.002 192.399 212.268C191.256 204.296 189.786 196.367 188.445 188.422L188.436 188.439ZM83.0951 231.911C87.1354 238.247 91.8635 244.043 96.5744 249.865C98.1905 251.867 99.4628 251.78 101.586 250.796C127.341 238.899 153.784 229.039 181.645 223.469C183.502 223.095 184.568 222.59 184.095 220.066C182.634 212.268 181.568 204.392 180.339 196.541C179.376 189.823 178.43 183.095 177.459 176.376C173.865 151.468 170.246 126.569 166.679 101.661C165.535 93.6973 164.53 85.7166 163.378 77.1527C156.501 82.8619 150.088 88.1447 143.761 93.5232C142.952 94.2107 142.48 95.4031 142.058 96.4474C128.983 128.266 94.7089 141.268 68.2145 134.932C56.6523 132.165 45.4252 128.971 33.4503 130.085C33.3042 130.102 33.1581 130.102 33.0205 130.085C28.8942 129.493 29.0059 131.155 30.4158 134.367C39.5109 155.089 49.3624 175.437 60.3573 195.192C67.3635 207.786 74.5759 220.266 83.1037 231.902L83.0951 231.911Z" fill="#053969"/>
<path d="M93.9696 189.831C97.1245 187.708 100.228 186.106 97.7091 181.877C97.073 180.806 96.2649 179.205 97.7779 178.456C99.5917 177.551 100.151 179.266 100.675 180.658C100.967 181.45 101.38 182.208 101.758 183.017C103.967 182.268 105.051 179.579 108.076 180.093C102.85 172.138 100.417 163.818 100.572 154.741C100.58 154.018 100.563 153.287 100.649 152.574C101.216 148.083 102.515 143.775 107.122 142.165C111.902 140.494 115.108 143.818 117.498 147.291C124.023 156.751 128.175 167.064 126.653 178.926C126.181 182.608 124.883 186.106 120.954 187.412C116.939 188.744 114.206 186.089 111.498 183.704C110.526 182.852 109.65 181.894 108.695 180.937C107.501 180.989 108.18 182.382 107.492 182.825C104.002 185.08 102.248 187.795 104.913 191.911C105.455 192.756 105.291 193.974 103.95 194.305C102.927 194.557 102.394 193.904 102.016 193.043C101.5 191.859 100.959 190.693 100.434 189.527C100.073 189.605 99.7809 189.579 99.6175 189.718C93.0498 194.992 92.2417 194.74 89.3017 186.507C86.3445 178.23 83.3702 169.962 80.4044 161.686C79.923 160.345 78.9773 158.526 80.6107 157.839C82.777 156.925 82.9661 159.258 83.4733 160.641C86.9635 170.258 90.4021 179.884 93.9782 189.823L93.9696 189.831ZM103.856 156.942C104.311 166.446 107.053 175.906 115.495 182.738C119.097 185.645 121.324 184.905 122.897 180.563C124.427 176.333 123.946 172.051 122.957 167.787C121.221 160.276 118.65 153.122 113.286 147.421C109.882 143.801 106.761 144.584 104.75 149.171C103.778 151.39 104.053 153.696 103.847 156.942H103.856Z" fill="#053969"/>
<path d="M144.173 163.505C146.597 163.087 148.05 159.197 149.898 161.32C152.022 163.757 148.377 164.732 147.027 165.959C144.741 168.048 146.847 169.658 147.225 171.407C147.491 172.652 148.523 173.974 146.829 174.732C145.119 175.497 144.586 174.018 144.276 172.73C143.451 169.249 142.033 170.223 140.081 171.894C136.471 174.975 134.554 174.41 132.895 169.858C129.499 160.554 126.181 151.216 122.862 141.877C122.415 140.624 121.255 138.962 123.447 138.335C125.149 137.848 125.459 139.536 125.888 140.72C128.914 149.092 131.906 157.482 134.932 165.854C135.456 167.308 135.611 168.961 136.986 170.18C139.265 168.135 142.987 166.934 140.279 162.547C139.643 161.52 138.585 159.667 140.588 158.848C142.634 158.022 142.643 160.232 143.313 161.32C143.675 161.903 143.829 162.626 144.165 163.496L144.173 163.505Z" fill="#053969"/>
</g>
<defs>
<clipPath id="clip0_3354_4442">
<rect width="196" height="255" fill="white"/>
</clipPath>
</defs>
</svg>
