<svg width="28" height="28" viewBox="0 0 28 28" fill="none" xmlns="http://www.w3.org/2000/svg">
<path d="M26.4785 19.0484C26.3788 19.1593 26.2419 19.2282 26.0613 19.276C26.0615 19.1837 26.0616 19.0885 26.0616 18.9905V15.5508C26.0616 15.2014 25.7785 14.9178 25.4299 14.9178C25.0814 14.9178 24.7983 15.2014 24.7983 15.5508V19.1132C24.7984 19.4113 24.7985 19.6786 24.7952 19.9183C24.7882 19.9667 24.7868 20.0167 24.7916 20.0676C24.7919 20.0704 24.7922 20.0731 24.7925 20.0759C24.7857 20.3884 24.7712 20.6501 24.7406 20.8691L24.7353 20.907C24.7069 21.112 24.6867 21.2576 24.5677 21.3372C24.4644 21.4063 24.3222 21.4307 24.1386 21.4539C23.8551 21.4895 23.5006 21.4976 23.0577 21.5002C22.9801 21.5007 22.9 21.501 22.8172 21.5011C22.7133 21.5013 22.6053 21.5013 22.493 21.5013C22.1444 21.5013 21.8613 21.785 21.8613 22.1344C21.8613 22.4837 22.1444 22.7674 22.493 22.7674C22.625 22.7674 22.7512 22.7674 22.8717 22.7671C22.9379 22.7669 23.0024 22.7667 23.0652 22.7663C24.194 22.7596 24.8626 22.6621 25.269 22.3903C25.597 22.1708 25.8159 21.8543 25.9339 21.3566C25.9848 21.1421 26.0156 20.8811 26.0341 20.5631C26.7028 20.4384 27.1297 20.2153 27.4167 19.8962C27.6549 19.6313 27.8123 19.2912 27.8981 18.8374C27.9943 18.3282 28 17.639 28 16.7053V14.3106C28 14.2972 28.0189 12.8183 26.6883 11.6448C25.8785 10.9307 24.538 10.3053 22.2883 10.3053C22.0415 10.3053 21.8067 10.3128 21.5819 10.3268C21.234 10.3487 20.9692 10.6494 20.9909 10.9981C21.0127 11.3468 21.3128 11.6122 21.6608 11.5905C21.8604 11.5779 22.069 11.5714 22.2883 11.5714C24.1028 11.5714 25.2006 12.0193 25.8538 12.5954C26.7179 13.3573 26.7368 14.3019 26.7368 14.3106V16.7859C26.7368 17.4517 26.7369 17.9768 26.6884 18.3909C26.6547 18.6801 26.6139 18.898 26.4785 19.0484Z" fill="white"/>
<path d="M0.583234 19.8962C0.869418 20.2144 1.29469 20.4371 1.9599 20.562C1.97304 20.7914 1.99281 20.9905 2.02243 21.1633C2.10112 21.6218 2.25317 21.9401 2.4717 22.174C2.6987 22.417 3.00649 22.5832 3.45145 22.6707C3.91044 22.7609 4.56587 22.7674 5.5026 22.7674C5.85119 22.7674 6.13422 22.4837 6.13422 22.1344C6.13422 21.785 5.85119 21.5013 5.5026 21.5013H5.40973C4.75386 21.5014 4.25639 21.5015 3.87912 21.4566L3.85081 21.4533C3.64177 21.4286 3.48889 21.4106 3.39378 21.3087C3.28657 21.1939 3.26766 21.0117 3.24112 20.7559L3.23973 20.7426C3.22047 20.5573 3.20993 20.3451 3.20418 20.1022C3.20589 20.0908 3.20728 20.0792 3.20834 20.0676C3.21403 20.0073 3.21099 19.9482 3.20038 19.8915C3.19718 19.646 3.19719 19.3721 3.19722 19.0666V15.5508C3.19722 15.2014 2.9142 14.9178 2.56561 14.9178C2.21704 14.9178 1.934 15.2014 1.934 15.5508V18.9905C1.934 19.0881 1.93408 19.1828 1.9342 19.2748C1.75583 19.2271 1.62035 19.1583 1.52151 19.0484C1.38615 18.898 1.34535 18.6801 1.31155 18.3909C1.2631 17.9768 1.26316 17.4517 1.26323 16.7859V14.3106C1.26323 14.3019 1.28212 13.3573 2.14616 12.5954C2.79938 12.0193 3.89718 11.5714 5.71167 11.5714C5.93098 11.5714 6.1396 11.5779 6.33924 11.5905C6.6872 11.6122 6.98728 11.3468 7.00906 10.9981C7.03079 10.6494 6.76597 10.3487 6.41807 10.3268C6.19327 10.3128 5.9585 10.3053 5.71167 10.3053C3.462 10.3053 2.1216 10.9307 1.31168 11.6448C-0.00882433 12.8094 -0.000189013 14.2747 1.14493e-05 14.31V16.7053C1.14493e-05 17.639 0.00570151 18.3282 0.101893 18.8374C0.18766 19.2912 0.345054 19.6313 0.583234 19.8962Z" fill="white"/>
<path fill-rule="evenodd" clip-rule="evenodd" d="M19.2326 6.64647C19.2326 8.33787 20.6006 9.70903 22.2883 9.70903C23.976 9.70903 25.3441 8.33787 25.3441 6.64647C25.3441 4.955 23.976 3.58379 22.2883 3.58379C20.6006 3.58379 19.2326 4.955 19.2326 6.64647ZM24.0808 6.64647C24.0808 7.63863 23.2783 8.44296 22.2883 8.44296C21.2983 8.44296 20.4958 7.63863 20.4958 6.64647C20.4958 5.65426 21.2983 4.84986 22.2883 4.84986C23.2783 4.84986 24.0808 5.65426 24.0808 6.64647Z" fill="white"/>
<path fill-rule="evenodd" clip-rule="evenodd" d="M2.65594 6.64647C2.65594 8.33787 4.02401 9.70903 5.71167 9.70903C7.39933 9.70903 8.76742 8.33787 8.76742 6.64647C8.76742 4.955 7.39933 3.58379 5.71167 3.58379C4.02401 3.58379 2.65594 4.955 2.65594 6.64647ZM7.50419 6.64647C7.50419 7.63863 6.70166 8.44296 5.71167 8.44296C4.72169 8.44296 3.91916 7.63863 3.91916 6.64647C3.91916 5.65426 4.72169 4.84986 5.71167 4.84986C6.70166 4.84986 7.50419 5.65426 7.50419 6.64647Z" fill="white"/>
<path fill-rule="evenodd" clip-rule="evenodd" d="M10.8145 5.31141C10.8145 7.14024 12.2937 8.62281 14.1184 8.62281C15.9431 8.62281 17.4224 7.14024 17.4224 5.31141C17.4224 3.48256 15.9431 2 14.1184 2C12.2937 2 10.8145 3.48256 10.8145 5.31141ZM16.1592 5.31141C16.1592 6.44099 15.2455 7.35675 14.1184 7.35675C12.9914 7.35675 12.0777 6.44099 12.0777 5.31141C12.0777 4.18182 12.9914 3.26607 14.1184 3.26607C15.2455 3.26607 16.1592 4.18182 16.1592 5.31141Z" fill="white"/>
<path fill-rule="evenodd" clip-rule="evenodd" d="M7.88569 20.9824C7.88549 21.0194 7.87713 22.6089 9.3099 23.8725C10.1948 24.6529 11.6603 25.3333 14.1184 25.3333C16.5765 25.3333 18.0421 24.6529 18.927 23.8725C20.3597 22.6089 20.3514 21.0194 20.3512 20.9824L20.3512 20.9819V13.7618C20.3512 13.7473 20.3701 12.144 18.9269 10.8712C18.0421 10.0908 16.5765 9.41037 14.1184 9.41037C11.6603 9.41037 10.1948 10.0908 9.3099 10.8712C7.87713 12.1348 7.88549 13.7243 7.88569 13.7613V20.9824ZM19.0879 13.7618V20.9819C19.0879 20.9917 19.0691 22.0607 18.0925 22.922C17.3642 23.5643 16.1414 24.0673 14.1184 24.0673C12.0955 24.0673 10.8726 23.5643 10.1444 22.922C9.16779 22.0607 9.14891 20.9917 9.14891 20.9819V14.5024C9.14891 14.5009 9.1489 14.4994 9.1489 14.498V13.7618C9.1489 13.752 9.16779 12.683 10.1444 11.8217C10.8726 11.1794 12.0955 10.6764 14.1184 10.6764C16.1413 10.6764 17.3642 11.1794 18.0925 11.8217C19.0691 12.683 19.0879 13.752 19.0879 13.7618Z" fill="white"/>
</svg>
