<svg width="28" height="28" viewBox="0 0 28 28" fill="none" xmlns="http://www.w3.org/2000/svg">
<path d="M0.625487 7.5691H6.8902C6.97234 7.56911 7.05368 7.55282 7.12957 7.52116C7.20546 7.48951 7.27442 7.44311 7.3325 7.38461C7.39058 7.32612 7.43666 7.25667 7.46809 7.18024C7.49952 7.10381 7.51569 7.02189 7.51568 6.93917V0.62993C7.51569 0.547204 7.49952 0.465287 7.46809 0.388856C7.43666 0.312426 7.39058 0.24298 7.3325 0.184484C7.27442 0.125988 7.20546 0.0795877 7.12957 0.0479337C7.05368 0.0162797 6.97234 -8.2716e-06 6.8902 3.15128e-09H0.625487C0.543345 -8.27153e-06 0.462006 0.0162797 0.386115 0.0479337C0.310224 0.0795877 0.241267 0.125988 0.183184 0.184484C0.125101 0.24298 0.0790276 0.312426 0.0475967 0.388856C0.0161657 0.465287 -7.75639e-06 0.547204 3.48624e-09 0.62993V6.93916C-8.66925e-06 7.02189 0.0161642 7.1038 0.0475947 7.18024C0.0790252 7.25667 0.125098 7.32611 0.183181 7.38461C0.241265 7.44311 0.310221 7.48951 0.386113 7.52116C0.462004 7.55282 0.543344 7.56911 0.625487 7.5691ZM1.25097 1.25987H6.26469V6.30923H1.25097V1.25987ZM0.625487 17.7845H6.8902C6.97234 17.7846 7.05368 17.7683 7.12957 17.7366C7.20546 17.705 7.27442 17.6586 7.3325 17.6001C7.39058 17.5416 7.43666 17.4721 7.46809 17.3957C7.49952 17.3193 7.51569 17.2373 7.51568 17.1546V10.8454C7.51569 10.7627 7.49952 10.6807 7.46809 10.6043C7.43666 10.5279 7.39059 10.4584 7.3325 10.3999C7.27442 10.3414 7.20546 10.295 7.12957 10.2634C7.05368 10.2317 6.97234 10.2154 6.8902 10.2154H0.625487C0.543345 10.2154 0.462006 10.2317 0.386115 10.2634C0.310223 10.295 0.241267 10.3414 0.183184 10.3999C0.1251 10.4584 0.0790276 10.5279 0.0475967 10.6043C0.0161657 10.6807 -7.75632e-06 10.7627 3.48624e-09 10.8454V17.1546C-8.21278e-06 17.2373 0.0161649 17.3193 0.0475957 17.3957C0.0790264 17.4721 0.125099 17.5416 0.183183 17.6001C0.241266 17.6586 0.310222 17.705 0.386114 17.7366C0.462005 17.7683 0.543345 17.7846 0.625487 17.7845ZM1.25097 11.4753H6.26469V16.5247H1.25097V11.4753ZM0.625487 28H6.8902C6.97234 28 7.05368 27.9837 7.12957 27.9521C7.20546 27.9204 7.27442 27.874 7.3325 27.8155C7.39058 27.757 7.43666 27.6876 7.46809 27.6111C7.49952 27.5347 7.51569 27.4528 7.51568 27.3701V21.0608C7.51569 20.9781 7.49952 20.8962 7.46809 20.8198C7.43666 20.7433 7.39059 20.6739 7.3325 20.6154C7.27442 20.5569 7.20546 20.5105 7.12957 20.4788C7.05368 20.4472 6.97234 20.4309 6.8902 20.4309H0.625487C0.543345 20.4309 0.462006 20.4472 0.386115 20.4788C0.310223 20.5105 0.241267 20.5569 0.183184 20.6154C0.1251 20.6739 0.0790276 20.7433 0.0475967 20.8198C0.0161657 20.8962 -7.75632e-06 20.9781 3.48624e-09 21.0608V27.3701C-7.75639e-06 27.4528 0.0161657 27.5347 0.0475967 27.6111C0.0790276 27.6876 0.125101 27.757 0.183184 27.8155C0.241267 27.874 0.310224 27.9204 0.386115 27.9521C0.462006 27.9837 0.543345 28 0.625487 28ZM1.25097 21.6908H6.26469V26.7401H1.25097V21.6908ZM10.5487 5.86558C10.5487 5.78285 10.5649 5.70093 10.5963 5.6245C10.6278 5.54807 10.6738 5.47862 10.7319 5.42013C10.79 5.36163 10.859 5.31523 10.9349 5.28358C11.0107 5.25192 11.0921 5.23564 11.1742 5.23564H27.373C27.4553 5.23545 27.5368 5.2516 27.6129 5.28317C27.6889 5.31474 27.758 5.36111 27.8163 5.41962C27.8745 5.47813 27.9207 5.54764 27.9522 5.62417C27.9838 5.70069 28 5.78273 28 5.86557C28 5.94842 27.9838 6.03046 27.9522 6.10698C27.9207 6.18351 27.8745 6.25302 27.8163 6.31153C27.758 6.37004 27.6889 6.41641 27.6129 6.44798C27.5368 6.47955 27.4553 6.4957 27.373 6.49551H11.1742C11.0921 6.49551 11.0107 6.47923 10.9349 6.44757C10.859 6.41592 10.79 6.36952 10.7319 6.31102C10.6738 6.25253 10.6278 6.18308 10.5963 6.10665C10.5649 6.03022 10.5487 5.9483 10.5487 5.86558ZM10.5487 1.70369C10.5487 1.62096 10.5649 1.53904 10.5963 1.46261C10.6278 1.38618 10.6738 1.31674 10.7319 1.25824C10.79 1.19974 10.859 1.15334 10.9349 1.12169C11.0107 1.09004 11.0921 1.07375 11.1742 1.07375H22.4845C22.6502 1.07415 22.8089 1.14069 22.9259 1.25878C23.0429 1.37687 23.1086 1.53687 23.1086 1.70369C23.1086 1.8705 23.0429 2.0305 22.9259 2.14859C22.8089 2.26668 22.6502 2.33322 22.4845 2.33362H11.1742C11.0921 2.33363 11.0107 2.31734 10.9349 2.28568C10.859 2.25403 10.79 2.20763 10.7319 2.14913C10.6738 2.09064 10.6278 2.02119 10.5963 1.94476C10.5649 1.86833 10.5487 1.78641 10.5487 1.70369ZM10.5487 16.0809C10.5487 15.9981 10.5649 15.9162 10.5963 15.8398C10.6278 15.7634 10.6738 15.6939 10.7319 15.6354C10.79 15.5769 10.859 15.5305 10.9349 15.4989C11.0107 15.4672 11.0921 15.4509 11.1742 15.4509H27.373C27.4553 15.4507 27.5368 15.4669 27.6129 15.4985C27.6889 15.53 27.758 15.5764 27.8163 15.6349C27.8745 15.6934 27.9207 15.7629 27.9522 15.8395C27.9838 15.916 28 15.998 28 16.0809C28 16.1637 27.9838 16.2457 27.9522 16.3223C27.9207 16.3988 27.8745 16.4683 27.8163 16.5268C27.758 16.5853 27.6889 16.6317 27.6129 16.6633C27.5368 16.6948 27.4553 16.711 27.373 16.7108H11.1742C11.0921 16.7108 11.0107 16.6945 10.9349 16.6629C10.859 16.6312 10.79 16.5848 10.7319 16.5263C10.6738 16.4678 10.6278 16.3984 10.5963 16.3219C10.5649 16.2455 10.5487 16.1636 10.5487 16.0809ZM10.5487 11.9191C10.5487 11.8364 10.5649 11.7545 10.5963 11.6781C10.6278 11.6016 10.6738 11.5322 10.7319 11.4737C10.79 11.4152 10.859 11.3688 10.9349 11.3371C11.0107 11.3055 11.0921 11.2892 11.1742 11.2892H22.4845C22.6502 11.2896 22.8089 11.3561 22.9259 11.4742C23.0429 11.5923 23.1086 11.7523 23.1086 11.9191C23.1086 12.086 23.0429 12.246 22.9259 12.364C22.8089 12.4821 22.6502 12.5487 22.4845 12.5491H11.1742C11.0921 12.5491 11.0107 12.5328 10.9349 12.5011C10.859 12.4695 10.79 12.4231 10.7319 12.3646C10.6738 12.3061 10.6278 12.2366 10.5963 12.1602C10.5649 12.0838 10.5487 12.0019 10.5487 11.9191ZM10.5487 26.2963C10.5487 26.2136 10.5649 26.1317 10.5963 26.0552C10.6278 25.9788 10.6738 25.9094 10.7319 25.8509C10.79 25.7924 10.859 25.746 10.9349 25.7143C11.0107 25.6827 11.0921 25.6664 11.1742 25.6664H27.373C27.4553 25.6662 27.5368 25.6823 27.6129 25.7139C27.6889 25.7455 27.758 25.7918 27.8163 25.8504C27.8745 25.9089 27.9207 25.9784 27.9522 26.0549C27.9838 26.1314 28 26.2135 28 26.2963C28 26.3792 27.9838 26.4612 27.9522 26.5377C27.9207 26.6142 27.8745 26.6838 27.8163 26.7423C27.758 26.8008 27.6889 26.8472 27.6129 26.8787C27.5368 26.9103 27.4553 26.9264 27.373 26.9262H11.1742C11.0921 26.9263 11.0107 26.91 10.9349 26.8783C10.859 26.8467 10.79 26.8003 10.7319 26.7418C10.6738 26.6833 10.6278 26.6138 10.5963 26.5374C10.5649 26.461 10.5487 26.379 10.5487 26.2963ZM10.5487 22.1344C10.5487 22.0517 10.5649 21.9698 10.5963 21.8933C10.6278 21.8169 10.6738 21.7475 10.7319 21.689C10.79 21.6305 10.859 21.5841 10.9349 21.5524C11.0107 21.5208 11.0921 21.5045 11.1742 21.5045H22.4845C22.6502 21.5049 22.8089 21.5714 22.9259 21.6895C23.0429 21.8076 23.1086 21.9676 23.1086 22.1344C23.1086 22.3012 23.0429 22.4612 22.9259 22.5793C22.8089 22.6974 22.6502 22.764 22.4845 22.7644H11.1742C11.0921 22.7644 11.0107 22.7481 10.9349 22.7164C10.859 22.6848 10.79 22.6384 10.7319 22.5799C10.6738 22.5214 10.6278 22.4519 10.5963 22.3755C10.5649 22.2991 10.5487 22.2171 10.5487 22.1344Z" fill="white"/>
</svg>
