<svg width="183" height="40" viewBox="0 0 183 40" fill="none" xmlns="http://www.w3.org/2000/svg">
<path d="M35 34.4202L27.8269 30.0879L20.0013 34.8606L27.2085 39L35 34.4202Z" fill="url(#paint0_linear_5701_4763)"/>
<path d="M23.3746 29.7166L17.0671 33.3062L9.89399 29.0977L16.5724 25.3844C18.4276 24.3941 19.5406 22.5375 19.5406 20.1857V13.873L26.7138 18.0814V24.0228C26.7138 26.3746 25.6007 28.355 23.3746 29.7166Z" fill="url(#paint1_linear_5701_4763)"/>
<path d="M13.4806 24.0228L7.17314 27.6124L0 23.4039L6.67845 19.6906C8.53357 18.7003 9.64664 16.8436 9.64664 14.4919V1L16.8198 5.20847V18.329C16.8198 20.6808 15.7067 22.6612 13.4806 24.0228Z" fill="url(#paint2_linear_5701_4763)"/>
<path d="M52.6678 33V19.5278H50.6669V15.3261H52.6678V14.4924C52.6678 13.4253 52.8678 12.5249 53.268 11.7913C53.6904 11.0354 54.4018 10.4574 55.4022 10.0573C56.4026 9.6571 57.7699 9.45701 59.5039 9.45701C59.8374 9.45701 60.2486 9.46813 60.7377 9.49036C61.2491 9.49036 61.6715 9.52371 62.0049 9.5904V13.8255C61.6715 13.781 61.3046 13.7588 60.9045 13.7588C60.5265 13.7365 60.1708 13.7254 59.8374 13.7254C59.0593 13.7254 58.5257 13.8477 58.2367 14.0922C57.9477 14.3146 57.8032 14.6147 57.8032 14.9926V15.3261H61.6715V19.5278H57.8032V33H52.6678ZM64.1803 33V15.3261H69.3157V33H64.1803ZM66.748 13.6587C65.7921 13.6587 65.0473 13.4142 64.5138 12.9251C64.0024 12.4138 63.7468 11.7691 63.7468 10.991C63.7468 10.2129 64.0024 9.57929 64.5138 9.0902C65.0473 8.57888 65.7921 8.32322 66.748 8.32322C67.704 8.32322 68.4376 8.57888 68.9489 9.0902C69.4825 9.57929 69.7492 10.2129 69.7492 10.991C69.7492 11.7691 69.4825 12.4138 68.9489 12.9251C68.4376 13.4142 67.704 13.6587 66.748 13.6587ZM72.9977 33V15.3261H77.733V17.7271C78.1776 16.9267 78.8668 16.2598 79.8005 15.7263C80.7564 15.1705 82.0236 14.8926 83.6021 14.8926C85.714 14.8926 87.3036 15.4595 88.3707 16.5933C89.46 17.7271 90.0047 19.3611 90.0047 21.4953V33H84.8692V22.6624C84.8692 21.5064 84.6136 20.6394 84.1023 20.0614C83.6132 19.4611 82.8017 19.161 81.6679 19.161C80.8454 19.161 80.1673 19.3277 79.6338 19.6612C79.1224 19.9724 78.7445 20.3948 78.5 20.9284C78.2554 21.4397 78.1331 22.0177 78.1331 22.6624V33H72.9977ZM101.525 33.4335C99.8799 33.4335 98.3682 33.1112 96.9898 32.4664C95.6337 31.8217 94.5444 30.8213 93.7218 29.4652C92.9215 28.0869 92.5213 26.3751 92.5213 24.3298V23.6628C92.5213 21.7509 92.9215 20.1503 93.7218 18.8609C94.5444 17.5492 95.6337 16.5599 96.9898 15.893C98.3682 15.226 99.8799 14.8926 101.525 14.8926C103.192 14.8926 104.704 15.226 106.06 15.893C107.416 16.5599 108.495 17.5492 109.295 18.8609C110.117 20.1503 110.529 21.7509 110.529 23.6628V24.3298C110.529 26.3528 110.117 28.0424 109.295 29.3985C108.495 30.7324 107.416 31.7439 106.06 32.4331C104.704 33.1 103.192 33.4335 101.525 33.4335ZM101.525 29.1651C102.325 29.1651 103.003 28.9761 103.559 28.5982C104.115 28.198 104.537 27.6311 104.826 26.8975C105.115 26.1639 105.26 25.308 105.26 24.3298V23.6628C105.26 22.7736 105.115 21.9955 104.826 21.3285C104.537 20.6616 104.115 20.1392 103.559 19.7612C103.003 19.3611 102.325 19.161 101.525 19.161C100.725 19.161 100.047 19.3611 99.4909 19.7612C98.9351 20.1392 98.5127 20.6616 98.2237 21.3285C97.9347 21.9955 97.7902 22.7736 97.7902 23.6628V24.3298C97.7902 25.3524 97.9347 26.2306 98.2237 26.9642C98.5127 27.6756 98.9351 28.2203 99.4909 28.5982C100.047 28.9761 100.725 29.1651 101.525 29.1651ZM113.183 33V15.3261H117.919V17.7271C118.097 17.3269 118.397 16.9045 118.819 16.4599C119.241 16.0153 119.753 15.6484 120.353 15.3594C120.953 15.0482 121.62 14.8926 122.354 14.8926C122.732 14.8926 123.032 14.9148 123.254 14.9593C123.477 15.0037 123.677 15.0482 123.854 15.0927V19.5278C123.743 19.4611 123.488 19.3833 123.088 19.2944C122.687 19.2055 122.232 19.161 121.72 19.161C120.92 19.161 120.264 19.3166 119.753 19.6279C119.264 19.9391 118.897 20.3615 118.652 20.895C118.43 21.4286 118.319 22.0288 118.319 22.6958V33H113.183ZM126.511 33V15.3261H131.646V33H126.511ZM129.078 13.6587C128.122 13.6587 127.378 13.4142 126.844 12.9251C126.333 12.4138 126.077 11.7691 126.077 10.991C126.077 10.2129 126.333 9.57929 126.844 9.0902C127.378 8.57888 128.122 8.32322 129.078 8.32322C130.034 8.32322 130.768 8.57888 131.279 9.0902C131.813 9.57929 132.079 10.2129 132.079 10.991C132.079 11.7691 131.813 12.4138 131.279 12.9251C130.768 13.4142 130.034 13.6587 129.078 13.6587ZM141.397 33.4335C139.374 33.4335 137.829 32.8555 136.762 31.6995C135.695 30.5434 135.161 28.7872 135.161 26.4306V15.3261H140.297V25.6303C140.297 26.7863 140.53 27.6645 140.997 28.2647C141.486 28.865 142.264 29.1651 143.331 29.1651C144.087 29.1651 144.71 29.0095 145.199 28.6982C145.71 28.387 146.088 27.9646 146.332 27.431C146.577 26.8975 146.699 26.2973 146.699 25.6303V15.3261H151.835V33H147.099V30.599C146.633 31.3993 145.921 32.0774 144.965 32.6332C144.032 33.1667 142.842 33.4335 141.397 33.4335ZM155.16 33V15.3261H159.996V17.8605C160.396 17.0824 161.018 16.3932 161.863 15.7929C162.708 15.1927 163.753 14.8926 164.998 14.8926C166.398 14.8926 167.476 15.1594 168.232 15.6929C169.01 16.2265 169.577 16.949 169.933 17.8605C170.378 17.0157 171.067 16.3154 172.001 15.7596C172.934 15.1816 174.035 14.8926 175.302 14.8926C177.214 14.8926 178.67 15.4372 179.67 16.5266C180.671 17.5937 181.171 19.1943 181.171 21.3285V33H176.036V22.5957C176.036 21.3508 175.835 20.4726 175.435 19.9613C175.057 19.4278 174.435 19.161 173.568 19.161C173.057 19.161 172.579 19.3055 172.134 19.5945C171.712 19.8613 171.367 20.2503 171.1 20.7616C170.856 21.273 170.733 21.8843 170.733 22.5957V33H165.598V22.5957C165.598 21.3508 165.398 20.4726 164.998 19.9613C164.62 19.4278 163.997 19.161 163.13 19.161C162.597 19.161 162.119 19.3055 161.696 19.5945C161.274 19.8613 160.929 20.2503 160.663 20.7616C160.418 21.273 160.296 21.8843 160.296 22.5957V33H155.16Z" fill="#053969"/>
<defs>
<linearGradient id="paint0_linear_5701_4763" x1="25.106" y1="20.0619" x2="18.5425" y2="33.0542" gradientUnits="userSpaceOnUse">
<stop stop-color="#4C33E4"/>
<stop offset="1" stop-color="#50ACFF"/>
</linearGradient>
<linearGradient id="paint1_linear_5701_4763" x1="25.106" y1="20.0619" x2="18.5425" y2="33.0542" gradientUnits="userSpaceOnUse">
<stop stop-color="#4C33E4"/>
<stop offset="1" stop-color="#50ACFF"/>
</linearGradient>
<linearGradient id="paint2_linear_5701_4763" x1="25.106" y1="20.0619" x2="18.5425" y2="33.0542" gradientUnits="userSpaceOnUse">
<stop stop-color="#4C33E4"/>
<stop offset="1" stop-color="#50ACFF"/>
</linearGradient>
</defs>
</svg>
